<svg viewBox="-1.848559339130425 91.989113696 378.90086956521736 191.81632" version="1.0" preserveAspectRatio="xMidYMid meet" zoomAndPan="magnify" xmlns:xlink="http://www.w3.org/1999/xlink" xmlns="http://www.w3.org/2000/svg" style="max-height: 500px" width="378.90086956521736" height="191.81632"><defs><clipPath id="f3effa697a"><path clip-rule="nonzero" d="M 21.046875 59.226562 L 207.582031 59.226562 L 207.582031 245.757812 L 21.046875 245.757812 Z M 21.046875 59.226562"/></clipPath><clipPath id="ea88000b6e"><path clip-rule="nonzero" d="M 21.046875 152.492188 C 21.046875 204 62.804688 245.757812 114.3125 245.757812 C 165.824219 245.757812 207.582031 204 207.582031 152.492188 C 207.582031 100.980469 165.824219 59.226562 114.3125 59.226562 C 62.804688 59.226562 21.046875 100.980469 21.046875 152.492188 Z M 21.046875 152.492188"/></clipPath><clipPath id="2d7a762aec"><path clip-rule="nonzero" d="M 40.761719 59.226562 L 227.296875 59.226562 L 227.296875 245.757812 L 40.761719 245.757812 Z M 40.761719 59.226562"/></clipPath><clipPath id="df03926dcd"><path clip-rule="nonzero" d="M 40.761719 152.492188 C 40.761719 204 82.519531 245.757812 134.03125 245.757812 C 185.539062 245.757812 227.296875 204 227.296875 152.492188 C 227.296875 100.980469 185.539062 59.226562 134.03125 59.226562 C 82.519531 59.226562 40.761719 100.980469 40.761719 152.492188 Z M 40.761719 152.492188"/></clipPath><clipPath id="ecb868dafb"><path clip-rule="nonzero" d="M 60.859375 59.226562 L 247.394531 59.226562 L 247.394531 245.757812 L 60.859375 245.757812 Z M 60.859375 59.226562"/></clipPath><clipPath id="8be4baa904"><path clip-rule="nonzero" d="M 60.859375 152.492188 C 60.859375 204 102.617188 245.757812 154.125 245.757812 C 205.636719 245.757812 247.394531 204 247.394531 152.492188 C 247.394531 100.980469 205.636719 59.226562 154.125 59.226562 C 102.617188 59.226562 60.859375 100.980469 60.859375 152.492188 Z M 60.859375 152.492188"/></clipPath><clipPath id="f4cf4a90eb"><path clip-rule="nonzero" d="M 166.777344 59.226562 L 353.3125 59.226562 L 353.3125 245.757812 L 166.777344 245.757812 Z M 166.777344 59.226562"/></clipPath><clipPath id="c7a62c77aa"><path clip-rule="nonzero" d="M 166.777344 152.492188 C 166.777344 204 208.535156 245.757812 260.046875 245.757812 C 311.554688 245.757812 353.3125 204 353.3125 152.492188 C 353.3125 100.980469 311.554688 59.226562 260.046875 59.226562 C 208.535156 59.226562 166.777344 100.980469 166.777344 152.492188 Z M 166.777344 152.492188"/></clipPath><clipPath id="71d2aa2aaf"><path clip-rule="nonzero" d="M 148.1875 59.226562 L 334.71875 59.226562 L 334.71875 245.757812 L 148.1875 245.757812 Z M 148.1875 59.226562"/></clipPath><clipPath id="b9385a1542"><path clip-rule="nonzero" d="M 148.1875 152.492188 C 148.1875 204 189.941406 245.757812 241.453125 245.757812 C 292.960938 245.757812 334.71875 204 334.71875 152.492188 C 334.71875 100.980469 292.960938 59.226562 241.453125 59.226562 C 189.941406 59.226562 148.1875 100.980469 148.1875 152.492188 Z M 148.1875 152.492188"/></clipPath><clipPath id="6e74cede93"><path clip-rule="nonzero" d="M 127.480469 59.226562 L 314.015625 59.226562 L 314.015625 245.757812 L 127.480469 245.757812 Z M 127.480469 59.226562"/></clipPath><clipPath id="ff73e60795"><path clip-rule="nonzero" d="M 127.480469 152.492188 C 127.480469 204 169.238281 245.757812 220.75 245.757812 C 272.257812 245.757812 314.015625 204 314.015625 152.492188 C 314.015625 100.980469 272.257812 59.226562 220.75 59.226562 C 169.238281 59.226562 127.480469 100.980469 127.480469 152.492188 Z M 127.480469 152.492188"/></clipPath><clipPath id="5e02f3a8f7"><path clip-rule="nonzero" d="M 0.96875 59.226562 L 374.035156 59.226562 L 374.035156 245.757812 L 0.96875 245.757812 Z M 0.96875 59.226562"/></clipPath><clipPath id="11281820c1"><path clip-rule="nonzero" d="M 280.769531 59.226562 C 332.277344 59.226562 374.035156 100.980469 374.035156 152.492188 C 374.035156 204 332.277344 245.757812 280.769531 245.757812 L 94.234375 245.757812 C 42.726562 245.757812 0.96875 204 0.96875 152.492188 C 0.96875 100.980469 42.726562 59.226562 94.234375 59.226562 Z M 280.769531 59.226562"/></clipPath><clipPath id="48f1a6c82b"><rect height="305" y="0" width="375" x="0"/></clipPath></defs><g transform="matrix(1, 0, 0, 1, 0, 35)"><g clip-path="url(#48f1a6c82b)"><g clip-path="url(#f3effa697a)"><g clip-path="url(#ea88000b6e)"><path stroke-miterlimit="4" stroke-opacity="1" stroke-width="10.856006" stroke="#ffffff" d="M 37.499905 -0.000251521 C 16.789936 -0.000251521 0.000192458 16.789492 0.000192458 37.499461 C 0.000192458 58.211 16.789936 75.000744 37.499905 75.000744 C 58.211444 75.000744 74.999617 58.211 74.999617 37.499461 C 74.999617 16.789492 58.211444 -0.000251521 37.499905 -0.000251521 Z M 37.499905 -0.000251521" stroke-linejoin="miter" fill="none" transform="matrix(0, -2.487102, 2.487102, 0, 21.047501, 245.758291)" stroke-linecap="butt"/></g></g><g clip-path="url(#2d7a762aec)"><g clip-path="url(#df03926dcd)"><path stroke-miterlimit="4" stroke-opacity="1" stroke-width="10.856006" stroke="#ffffff" d="M 37.499905 -0.000765499 C 16.789936 -0.000765499 0.000192458 16.788978 0.000192458 37.500517 C 0.000192458 58.210486 16.789936 75.00023 37.499905 75.00023 C 58.211444 75.00023 74.999617 58.210486 74.999617 37.500517 C 74.999617 16.788978 58.211444 -0.000765499 37.499905 -0.000765499 Z M 37.499905 -0.000765499" stroke-linejoin="miter" fill="none" transform="matrix(0, -2.487102, 2.487102, 0, 40.763623, 245.758291)" stroke-linecap="butt"/></g></g><g clip-path="url(#ecb868dafb)"><g clip-path="url(#8be4baa904)"><path stroke-miterlimit="4" stroke-opacity="1" stroke-width="10.856006" stroke="#ffffff" d="M 37.499905 -0.000417154 C 16.789936 -0.000417154 0.000192458 16.789327 0.000192458 37.499295 C 0.000192458 58.210834 16.789936 75.000578 37.499905 75.000578 C 58.211444 75.000578 74.999617 58.210834 74.999617 37.499295 C 74.999617 16.789327 58.211444 -0.000417154 37.499905 -0.000417154 Z M 37.499905 -0.000417154" stroke-linejoin="miter" fill="none" transform="matrix(0, -2.487102, 2.487102, 0, 60.860413, 245.758291)" stroke-linecap="butt"/></g></g><g clip-path="url(#f4cf4a90eb)"><g clip-path="url(#c7a62c77aa)"><path stroke-miterlimit="4" stroke-opacity="1" stroke-width="10.856006" stroke="#ffffff" d="M 37.499905 -0.000743435 C 16.789936 -0.000743435 0.000192458 16.789 0.000192458 37.500539 C 0.000192458 58.210508 16.789936 75.000252 37.499905 75.000252 C 58.211444 75.000252 74.999617 58.210508 74.999617 37.500539 C 74.999617 16.789 58.211444 -0.000743435 37.499905 -0.000743435 Z M 37.499905 -0.000743435" stroke-linejoin="miter" fill="none" transform="matrix(0, -2.487102, 2.487102, 0, 166.779193, 245.758291)" stroke-linecap="butt"/></g></g><g clip-path="url(#71d2aa2aaf)"><g clip-path="url(#b9385a1542)"><path stroke-miterlimit="4" stroke-opacity="1" stroke-width="10.856006" stroke="#ffffff" d="M 37.499905 0.000712971 C 16.789936 0.000712971 0.000192458 16.788886 0.000192458 37.500425 C 0.000192458 58.210394 16.789936 75.000138 37.499905 75.000138 C 58.211444 75.000138 74.999617 58.210394 74.999617 37.500425 C 74.999617 16.788886 58.211444 0.000712971 37.499905 0.000712971 Z M 37.499905 0.000712971" stroke-linejoin="miter" fill="none" transform="matrix(0, -2.487102, 2.487102, 0, 148.185727, 245.758291)" stroke-linecap="butt"/></g></g><g clip-path="url(#6e74cede93)"><g clip-path="url(#ff73e60795)"><path stroke-miterlimit="4" stroke-opacity="1" stroke-width="10.856006" stroke="#ffffff" d="M 37.499905 -0.000577451 C 16.789936 -0.000577451 0.000192458 16.789166 0.000192458 37.500705 C 0.000192458 58.210674 16.789936 75.000418 37.499905 75.000418 C 58.211444 75.000418 74.999617 58.210674 74.999617 37.500705 C 74.999617 16.789166 58.211444 -0.000577451 37.499905 -0.000577451 Z M 37.499905 -0.000577451" stroke-linejoin="miter" fill="none" transform="matrix(0, -2.487102, 2.487102, 0, 127.481905, 245.758291)" stroke-linecap="butt"/></g></g><g clip-path="url(#5e02f3a8f7)"><g clip-path="url(#11281820c1)"><path stroke-miterlimit="4" stroke-opacity="1" stroke-width="10.856006" stroke="#ffffff" d="M 112.500212 0.000384338 C 133.21018 0.000384338 149.999924 16.788558 149.999924 37.500097 C 149.999924 58.210065 133.21018 74.999809 112.500212 74.999809 L 37.499217 74.999809 C 16.789248 74.999809 -0.000495666 58.210065 -0.000495666 37.500097 C -0.000495666 16.788558 16.789248 0.000384338 37.499217 0.000384338 Z M 112.500212 0.000384338" stroke-linejoin="miter" fill="none" transform="matrix(2.487102, 0, 0, 2.487102, 0.969983, 59.225607)" stroke-linecap="butt"/></g></g></g></g></svg>